# xmcd
#
# Track frame offsets: 
#        150
#        22414
#        44306
#        62102
#        86493
#        106318
#        126357
#        147098
#        166194
#        185690
#
# Disc length: 2755 seconds
#
# Revision: 0
# Processed by: cddbd v1.5.2PL0 Copyright (c) Steve Scherf et al.
# Submitted via: ExactAudioCopy v1.0b3
#
DISCID=8c0ac10a
DTITLE=Phi Nhung - Noi Lai Tinh Xua
DYEAR=1996
DGENRE=
TTITLE0=Noi lai tinh xua
TTITLE1=Noi buon hoa phuong
TTITLE2=Trom nhin nhau
TTITLE3=Vuon tao ngo
TTITLE4=Nguoi ngoai pho
TTITLE5=Neu anh dung hen
TTITLE6=Sau ngay hanh quan
TTITLE7=Viet tu KBC
TTITLE8=Nhung dom mat hoa chau
TTITLE9=Da ta
EXTD=
EXTT0=
EXTT1=
EXTT2=
EXTT3=
EXTT4=
EXTT5=
EXTT6=
EXTT7=
EXTT8=
EXTT9=
PLAYORDER=
